<svg width="64" height="64" viewBox="0 0 64 64" xmlns="http://www.w3.org/2000/svg">
  <!-- Background circle -->
  <circle cx="32" cy="32" r="30" fill="#4F46E5" stroke="#3730A3" stroke-width="2"/>
  
  <!-- Character body -->
  <ellipse cx="32" cy="38" rx="18" ry="22" fill="#FFFFFF"/>
  
  <!-- Character head -->
  <circle cx="32" cy="24" r="14" fill="#FFFFFF"/>
  
  <!-- Eyes -->
  <circle cx="27" cy="21" r="2" fill="#1F2937"/>
  <circle cx="37" cy="21" r="2" fill="#1F2937"/>
  <circle cx="27.5" cy="20.5" r="0.5" fill="#FFFFFF"/>
  <circle cx="37.5" cy="20.5" r="0.5" fill="#FFFFFF"/>
  
  <!-- Mouth -->
  <path d="M 28 27 Q 32 29 36 27" stroke="#1F2937" stroke-width="1.5" fill="none" stroke-linecap="round"/>
  
  <!-- Pencil in hand -->
  <rect x="10" y="35" width="2" height="12" fill="#F59E0B" transform="rotate(-30 11 41)"/>
  <rect x="9" y="33" width="4" height="3" fill="#EF4444" transform="rotate(-30 11 34.5)"/>
  
  <!-- Book -->
  <rect x="45" y="40" width="8" height="10" fill="#10B981" rx="1"/>
  <line x1="47" y1="42" x2="51" y2="42" stroke="#FFFFFF" stroke-width="0.5"/>
  <line x1="47" y1="44" x2="51" y2="44" stroke="#FFFFFF" stroke-width="0.5"/>
  <line x1="47" y1="46" x2="49" y2="46" stroke="#FFFFFF" stroke-width="0.5"/>
  
  <!-- Sparkles -->
  <g fill="#F59E0B">
    <polygon points="15,15 16,17 18,16 16,18 15,20 14,18 12,16 14,17" opacity="0.8"/>
    <polygon points="50,12 51,14 53,13 51,15 50,17 49,15 47,13 49,14" opacity="0.6"/>
    <polygon points="8,50 9,52 11,51 9,53 8,55 7,53 5,51 7,52" opacity="0.7"/>
  </g>
</svg>

